<svg width="40" height="37" viewBox="0 0 40 37" fill="none" xmlns="http://www.w3.org/2000/svg">
<path d="M17.4377 30.7029C17.4542 31.3167 17.3482 31.9277 17.1259 32.5001C16.9036 33.0725 16.5694 33.5948 16.1429 34.0366C15.7167 34.4763 15.2066 34.8261 14.6428 35.0652C14.079 35.3043 13.473 35.4279 12.8606 35.4286C12.248 35.4288 11.6417 35.3056 11.0778 35.0665C10.5139 34.8273 10.0039 34.4771 9.57829 34.0366C9.15097 33.5954 8.81627 33.0731 8.59389 32.5006C8.37151 31.9281 8.26595 31.3168 8.28343 30.7029C8.29372 29.9051 8.512 29.1234 8.92 28.4389C9.32686 27.7531 9.90629 27.1886 10.6 26.8011C10.5726 26.9257 10.7029 26.7383 10.6 26.8011L12.7257 24.9131C14.4108 23.1197 15.3519 20.7534 15.3589 18.2926C15.3589 14.9486 13.4034 11.5486 10.5931 9.77028C10.7006 9.83314 10.552 9.66285 10.5931 9.77028C9.89908 9.38173 9.31993 8.81678 8.91429 8.13257C8.50724 7.4472 8.2877 6.66678 8.27772 5.86971C8.26098 5.25567 8.36688 4.64446 8.58922 4.07185C8.81155 3.49923 9.14586 2.97671 9.57257 2.53485C9.99864 2.09524 10.5085 1.74554 11.0721 1.50645C11.6357 1.26735 12.2415 1.14372 12.8537 1.14285C13.4663 1.14253 14.0726 1.26562 14.6365 1.50478C15.2005 1.74394 15.7104 2.09427 16.136 2.53485C16.5635 2.97593 16.8983 3.49816 17.1207 4.07072C17.3431 4.64328 17.4485 5.25459 17.4309 5.86857C17.4428 8.35095 18.4022 10.7351 20.1131 12.5337L21.0469 13.448C21.4194 13.7737 21.8103 14.0777 22.2171 14.36C22.9269 14.7371 23.5223 15.304 23.936 15.9954C24.2457 16.5131 24.4472 17.0881 24.5282 17.6859C24.6093 18.2836 24.5682 18.8916 24.4075 19.473C24.2469 20.0544 23.9699 20.5972 23.5934 21.0684C23.2169 21.5397 22.7487 21.9297 22.2171 22.2149C22.2549 22.1383 22.1451 22.256 22.2171 22.2149C20.7815 23.1223 19.5939 24.3724 18.7611 25.8526C17.9263 27.3353 17.4716 29.0016 17.4377 30.7029ZM22.5611 5.85485C22.5611 6.76457 22.8297 7.65485 23.3337 8.41143C23.8359 9.16694 24.5511 9.7564 25.3886 10.1051C26.2253 10.4535 27.1468 10.5447 28.0355 10.367C28.9243 10.1893 29.7399 9.75077 30.3783 9.10742C31.0186 8.4623 31.4544 7.6426 31.6311 6.75097C31.8077 5.85933 31.7174 4.9354 31.3714 4.09485C31.0255 3.25527 30.4385 2.53703 29.6846 2.03085C28.8044 1.44032 27.7462 1.17448 26.6915 1.27895C25.6367 1.38343 24.6512 1.8517 23.904 2.60343C23.0447 3.46743 22.5619 4.63626 22.5611 5.85485ZM27.1406 26.1029C26.2354 26.1029 25.3497 26.3726 24.5966 26.8777C23.8427 27.3839 23.2557 28.1022 22.9097 28.9417C22.5635 29.7824 22.473 30.7066 22.6497 31.5984C22.8264 32.4903 23.2623 33.3102 23.9029 33.9554C24.5412 34.5988 25.3569 35.0373 26.2456 35.215C27.1343 35.3927 28.0559 35.3015 28.8926 34.9531C29.7308 34.604 30.4464 34.0137 30.9486 33.2571C31.5369 32.3714 31.8013 31.3096 31.6972 30.2514C31.5931 29.1931 31.1268 28.2033 30.3771 27.4491C29.953 27.0224 29.4487 26.6836 28.8933 26.4522C28.3379 26.2208 27.7423 26.1013 27.1406 26.1006V26.1029ZM38.8571 18.2789C38.8571 17.3691 38.5886 16.48 38.0857 15.7234C37.5837 14.9675 36.8685 14.3776 36.0309 14.0286C35.194 13.6799 34.2722 13.5886 33.3833 13.7663C32.4943 13.9441 31.6785 14.3827 31.04 15.0263C30.3994 15.6715 29.9635 16.4914 29.7868 17.3833C29.6102 18.2751 29.7006 19.1993 30.0469 20.04C30.3928 20.8796 30.9798 21.5978 31.7337 22.104C32.486 22.6091 33.3716 22.8789 34.2777 22.8789C34.8794 22.8779 35.4749 22.7584 36.0303 22.5269C36.5857 22.2955 37.09 21.9569 37.5143 21.5303C38.3737 20.6659 38.8564 19.4967 38.8571 18.2777V18.2789Z" fill="#5850EC"/>
<path d="M5.72226 13.6789C4.81598 13.6789 3.9314 13.9486 3.17826 14.4537C2.42423 14.9603 1.83723 15.6789 1.49141 16.5189C1.14542 17.3594 1.0551 18.2833 1.23176 19.175C1.40842 20.0666 1.84421 20.8863 2.48455 21.5314C3.12386 22.1733 3.93944 22.6108 4.8278 22.7885C5.71617 22.9661 6.63728 22.8759 7.47426 22.5291C8.31187 22.18 9.02702 21.5902 9.52912 20.8343C10.117 19.9488 10.3813 18.8875 10.2771 17.8297C10.173 16.7719 9.70696 15.7825 8.95769 15.0286C8.53358 14.602 8.02952 14.2632 7.47435 14.0316C6.91918 13.8 6.3238 13.6801 5.72226 13.6789Z" fill="#5850EC"/>
</svg>
